<svg xmlns="http://www.w3.org/2000/svg" viewBox="0 0 320 200" width="320" height="200" role="img" aria-hidden="true" focusable="false">
  <title>Platform analytics and oversight</title>
  <circle cx="252" cy="54" r="50" fill="#dcfce7" opacity="0.55"/>
  <circle cx="90" cy="46" r="18" fill="#fde047" opacity="0.4"/>
  <ellipse cx="160" cy="171" rx="112" ry="13" fill="#bbf7d0" opacity="0.65"/>

  <!-- analytics card -->
  <rect x="74" y="56" width="132" height="98" rx="10" fill="#ffffff" stroke="#bbf7d0" stroke-width="2.5"/>
  <rect x="74" y="56" width="132" height="18" rx="10" fill="#dcfce7"/>
  <rect x="74" y="66" width="132" height="8" fill="#dcfce7"/>
  <g fill="#16a34a" opacity="0.65">
    <circle cx="86" cy="65" r="3"/>
    <circle cx="96" cy="65" r="3"/>
    <circle cx="106" cy="65" r="3"/>
  </g>

  <!-- bars -->
  <rect x="90" y="112" width="15" height="28" rx="3.5" fill="#86efac"/>
  <rect x="113" y="98" width="15" height="42" rx="3.5" fill="#4ade80"/>
  <rect x="136" y="106" width="15" height="34" rx="3.5" fill="#22c55e"/>
  <rect x="159" y="86" width="15" height="54" rx="3.5" fill="#16a34a"/>
  <rect x="182" y="94" width="15" height="46" rx="3.5" fill="#15803d"/>
  <path d="M86 140h116" stroke="#e5e7eb" stroke-width="2.5" stroke-linecap="round"/>

  <!-- trend line -->
  <path d="M96 124l22-12 24 6 24-16 22 8" stroke="#facc15" stroke-width="3" fill="none" stroke-linecap="round" stroke-linejoin="round"/>
  <circle cx="188" cy="110" r="4.5" fill="#facc15"/>

  <!-- shield with check -->
  <path d="M244 84c14 0 26-5 26-5v26c0 18-13 29-26 34-13-5-26-16-26-34V79s12 5 26 5z" fill="#22c55e"/>
  <path d="M233 118l8 9 18-19" stroke="#f0fdf4" stroke-width="5" fill="none" stroke-linecap="round" stroke-linejoin="round"/>

  <!-- user chips -->
  <g>
    <circle cx="52" cy="112" r="11" fill="#4ade80"/>
    <circle cx="52" cy="108" r="4.5" fill="#f0fdf4"/>
    <path d="M44 120c2-5 14-5 16 0z" fill="#f0fdf4"/>
  </g>
  <g>
    <circle cx="52" cy="140" r="9" fill="#bbf7d0"/>
    <circle cx="52" cy="137" r="3.6" fill="#16a34a"/>
    <path d="M45.5 146c1.6-4 11.4-4 13 0z" fill="#16a34a"/>
  </g>
</svg>
